<svg width="179" height="40" viewBox="0 0 179 40" fill="none" xmlns="http://www.w3.org/2000/svg">
<path d="M93.9323 1.88938H84.4854V38.1106H93.9323V1.88938Z" fill="#FF32A0"/>
<path d="M159.714 39.6526C149.121 39.6526 140.503 31.0346 140.503 20.4419C140.503 9.84916 149.121 1.23114 159.714 1.23114C170.306 1.23114 178.924 9.84916 178.924 20.4419C178.924 31.0346 170.306 39.6526 159.714 39.6526ZM159.714 10.2575C154.1 10.2575 149.529 14.8286 149.529 20.4419C149.529 26.0552 154.1 30.6262 159.714 30.6262C165.327 30.6262 169.898 26.0552 169.898 20.4419C169.898 14.8286 165.327 10.2575 159.714 10.2575Z" fill="black"/>
<path d="M50.2885 38.1106L65.5924 22.8066V38.1106H75.0393V0L36.9287 38.1106H50.2885Z" fill="black"/>
<path d="M141.491 1.88938H128.131L112.827 17.1934V1.88938H103.38V40L116.514 26.8658L127.789 38.1411H141.149L123.194 20.1859L141.491 1.88938Z" fill="black"/>
<path d="M53.8778 1.88329H28.2249H0L9.4469 11.3302H21.6547V40H21.6608L31.1443 30.5165V11.3302H44.4309L44.437 11.3241H50.3367L59.7775 1.88329H53.8778Z" fill="black"/>
</svg>
