<svg width="400" height="130" viewBox="0 0 400 130" fill="none" xmlns="http://www.w3.org/2000/svg">
<path d="M209.994 5.09625H188.875V86.0718H209.994V5.09625Z" fill="#FF32A0"/>
<path d="M134.006 117.328C134.755 119.836 135.545 121.416 136.826 123.092C138.339 125.095 139.769 126.199 143.162 128.038C142.481 128.638 142.167 129.005 141.595 129.864C138.584 128.215 136.758 126.675 135.109 124.455C134.101 123.092 133.42 121.798 132.848 120.081C132.643 120.871 132.412 121.552 132.126 122.234C131.185 124.427 129.659 126.321 127.684 127.752C126.498 128.583 125.463 129.142 123.378 129.973C123.065 129.155 122.874 128.801 122.261 128.065C125.122 126.893 126.621 125.926 128.065 124.386C129.782 122.588 130.722 120.381 131.117 117.328H127.466C126.253 117.328 124.277 117.369 123.092 117.41V115.189C124.209 115.257 126.212 115.271 127.466 115.271H131.322C131.362 114.304 131.39 112.873 131.403 109.766L133.665 110.012C133.979 110.052 134.169 110.189 134.169 110.366C134.169 110.516 134.033 110.611 133.665 110.734C133.638 112.491 133.583 113.99 133.515 115.271H138.202C139.592 115.271 141.459 115.244 142.576 115.189V117.41C141.404 117.369 139.538 117.328 138.202 117.328H134.019H134.006Z" fill="white"/>
<path d="M174.61 119.127L175.999 120.299C176.149 120.435 176.217 120.544 176.217 120.653C176.217 120.803 176.108 120.912 175.672 121.144C175.032 126.417 174.596 128.242 173.71 129.087C173.002 129.741 172.361 129.864 169.173 129.836C169.132 128.896 169.064 128.433 168.778 127.466C169.527 127.534 169.95 127.547 170.576 127.547C171.612 127.547 171.939 127.398 172.252 126.798C172.743 125.803 172.961 124.686 173.329 121.457H170.74L170.604 122.247L168.383 122.138C169.064 118.487 169.323 116.579 169.377 114.835C170.1 114.876 171.026 114.903 171.694 114.903H173.887V112.532H170.631C170.086 112.532 169.173 112.56 168.669 112.573V110.502C169.159 110.529 169.991 110.543 170.631 110.543H174.037C175.032 110.543 175.577 110.543 176.054 110.502C176.027 110.766 176.004 111.42 175.986 112.464V115.394C175.986 116.211 176.013 116.497 176.054 117.574H173.874V116.865H171.34C171.231 117.764 171.122 118.65 171.013 119.549H174.31L174.596 119.154L174.61 119.127ZM183.207 110.747C183.343 110.788 183.466 110.924 183.466 111.006C183.466 111.142 183.289 111.251 182.853 111.374C181.163 119.222 180.523 121.893 179.133 126.294C180.809 126.103 182.458 125.858 184.106 125.585C183.534 124.441 182.785 123.405 182.035 122.37L183.711 121.225C185.619 123.473 186.763 125.476 187.935 128.556L185.796 129.632C185.51 128.91 185.224 128.201 184.938 127.479C184.256 127.616 183.425 127.765 181.613 128.079C181.095 128.17 180.128 128.333 178.711 128.569C177.961 128.678 177.812 128.706 176.626 128.924C176.381 129.278 176.313 129.346 176.19 129.346C176.013 129.346 175.877 129.21 175.795 128.924L175.086 126.662C175.686 126.635 176.272 126.594 176.871 126.553C178.452 121.212 178.738 120.067 179.378 116.947C179.923 114.222 180.346 111.96 180.673 110.025L183.207 110.775V110.747Z" fill="white"/>
<path d="M223.579 123.487V124.632H227.231C228.239 124.632 229.806 124.591 230.746 124.563V126.539C229.806 126.498 228.239 126.471 227.231 126.471H223.579V127.479H228.171C229.561 127.479 231.455 127.452 232.572 127.398V129.482C231.4 129.441 229.52 129.4 228.171 129.4H216.848C215.636 129.4 213.66 129.441 212.475 129.482V127.398C213.619 127.466 215.595 127.479 216.848 127.479H221.467V126.471H217.734C216.589 126.471 215.132 126.498 214.219 126.539V124.563C215.145 124.591 216.589 124.632 217.734 124.632H221.467V123.487H217.843V124.196H215.758C215.799 123.664 215.826 122.942 215.826 121.866V118.241C215.826 117.533 215.799 116.702 215.758 116.307C216.535 116.334 217.216 116.334 218.197 116.334H221.481V115.448H216.93C215.717 115.448 213.742 115.489 212.556 115.53V113.486C213.674 113.527 215.663 113.568 216.93 113.568H221.481V112.6C219.546 112.75 217.461 112.859 215.104 112.927C214.968 112.096 214.9 111.878 214.423 110.993H214.791C217.788 110.993 220.759 110.815 223.389 110.502C226.073 110.189 226.972 110.012 228.471 109.562L230.01 110.965C230.215 111.143 230.228 111.143 230.228 111.252C230.228 111.388 230.119 111.47 229.915 111.47L229.479 111.442C227.612 111.837 225.691 112.151 223.579 112.382V113.554H228.13C229.52 113.554 231.387 113.513 232.504 113.472V115.516C231.332 115.475 229.465 115.434 228.13 115.434H223.579V116.32H226.945C227.912 116.32 228.593 116.32 229.37 116.293C229.343 116.688 229.302 117.519 229.302 118.228V121.743C229.302 122.779 229.329 123.501 229.37 124.032H227.299V123.487H223.579ZM221.467 118.214H217.843V119.113H221.467V118.214ZM221.467 120.762H217.843V121.62H221.467V120.762ZM227.299 118.214H223.579V119.113H227.299V118.214ZM227.299 120.762H223.579V121.62H227.299V120.762Z" fill="white"/>
<path d="M259.51 121.77C259.074 123.16 258.678 124.059 257.861 125.626C257.575 124.85 257.139 124.223 256.58 123.732C257.575 121.798 257.983 120.762 258.556 118.718C258.883 117.506 259.046 116.824 259.169 116.116H258.951C258.351 116.116 257.67 116.143 257.207 116.157V114.181C257.684 114.208 258.488 114.222 258.951 114.222H259.496C259.496 113.404 259.469 112.614 259.469 111.797C259.441 111.074 259.441 110.339 259.36 109.644L261.54 109.821C261.744 109.821 261.867 109.903 261.867 110.039C261.867 110.148 261.758 110.284 261.444 110.461C261.444 111.715 261.444 112.968 261.417 114.222H261.785C262.248 114.222 263.066 114.195 263.543 114.181V116.157C263.079 116.129 262.371 116.116 261.785 116.116H261.417V117.901C262.303 118.677 262.957 119.372 263.529 120.162L262.248 121.811C261.989 121.321 261.703 120.885 261.417 120.49V123.569C261.417 126.444 261.458 128.583 261.526 129.986H259.387C259.455 128.556 259.469 126.403 259.469 123.569V121.77H259.51ZM276.405 119.399C276.323 119.004 276.228 118.623 276.119 118.255C275.506 118.364 274.906 118.473 274.32 118.568C274.961 118.882 275.547 119.29 276.146 119.686L275.615 120.408C276.255 120.381 276.909 120.38 277.55 120.367V122.329C276.732 122.288 275.329 122.261 274.497 122.261H272.018C272.236 123.078 272.549 123.841 272.903 124.591C273.625 123.937 274.239 123.187 274.811 122.37L276.459 123.296C276.609 123.378 276.705 123.487 276.705 123.61C276.705 123.814 276.568 123.869 276.16 123.937C275.451 124.863 274.729 125.654 273.952 126.335C274.484 127.016 275.097 127.547 275.342 127.547C275.71 127.547 276.051 126.621 276.269 124.945C276.991 125.408 277.277 125.545 277.958 125.831C277.781 127.057 277.454 128.27 277.195 128.91C276.868 129.632 276.446 129.918 275.683 129.918C274.538 129.918 273.326 129.06 272.277 127.588C270.342 128.76 268.203 129.414 266.05 129.986L265.941 129.591C265.695 128.815 265.655 128.665 265.328 128.079C267.371 127.575 269.415 126.975 271.227 125.885C270.859 125.109 270.505 124.264 270.219 123.337C270.11 122.983 270.015 122.629 269.933 122.288H266.785C266.745 122.656 266.704 123.037 266.636 123.392C267.235 123.719 267.807 124.073 268.352 124.468C268.775 124.795 269.17 125.149 269.538 125.504L268.325 126.907C267.712 126.226 267.044 125.585 266.254 125.081C265.655 127.152 264.633 128.597 262.93 129.959C262.575 129.182 262.33 128.815 261.812 128.338C262.78 127.507 263.611 126.58 264.115 125.395C264.537 124.427 264.728 123.364 264.864 122.315C264.401 122.315 263.938 122.343 263.475 122.356V120.394C264.306 120.421 265.559 120.435 266.527 120.435H269.538C269.47 120.081 269.429 119.713 269.388 119.359L268.094 119.904L267.835 118.909C266.622 119.127 265.409 119.331 264.183 119.508C264.006 119.754 263.897 119.822 263.788 119.822C263.652 119.822 263.57 119.74 263.502 119.508L262.861 117.833C263.229 117.833 263.611 117.805 263.979 117.792C264.469 117.179 264.905 116.497 265.3 115.816C264.592 114.998 263.788 114.276 262.93 113.609L263.87 112.382C264.006 112.464 264.129 112.532 264.238 112.628C264.81 111.701 265.246 110.666 265.559 109.63L267.358 110.448C267.508 110.516 267.603 110.625 267.603 110.734C267.603 110.87 267.494 110.952 267.099 111.061C266.172 112.669 265.995 112.996 265.586 113.609C265.804 113.813 266.022 114.004 266.227 114.222C266.513 113.69 266.772 113.145 267.044 112.614L268.72 113.513C268.897 113.595 268.979 113.718 268.979 113.799C268.979 113.977 268.87 114.058 268.448 114.154C267.617 115.475 266.935 116.484 265.982 117.696C266.458 117.669 266.922 117.628 267.385 117.56C267.29 117.301 267.167 117.029 267.058 116.77L268.339 116.17C268.707 116.92 269.047 117.669 269.306 118.459C269.17 116.824 269.088 114.849 269.061 112.219C269.034 110.679 268.993 110.066 268.925 109.644L271.118 109.889C271.364 109.916 271.473 109.998 271.473 110.134C271.473 110.284 271.364 110.42 271.05 110.57C271.009 111.115 271.009 111.361 271.009 111.797C271.009 112.968 271.077 114.903 271.186 116.947C271.186 117.029 271.186 117.097 271.214 117.192C271.582 117.165 271.99 117.151 272.358 117.151C272.753 116.606 273.121 116.048 273.476 115.475C272.753 114.644 271.936 113.936 271.077 113.254L272.018 112.028C272.195 112.137 272.386 112.273 272.563 112.382C273.053 111.497 273.489 110.557 273.775 109.562L275.574 110.379C275.724 110.448 275.819 110.529 275.819 110.638C275.819 110.788 275.724 110.856 275.315 110.993C274.457 112.491 274.266 112.859 273.884 113.418C274.061 113.568 274.211 113.731 274.388 113.895C274.702 113.323 274.961 112.75 275.247 112.178L276.936 113.077C277.086 113.159 277.195 113.268 277.195 113.363C277.195 113.541 277.086 113.622 276.664 113.718C275.874 114.944 275.206 115.911 274.361 117.042C274.797 117.001 275.22 116.961 275.656 116.906C275.547 116.647 275.451 116.402 275.329 116.129L276.609 115.516C277.182 116.661 277.618 117.764 277.863 118.773L276.405 119.413V119.399ZM271.186 117.356C271.255 118.391 271.364 119.399 271.554 120.408H274.388C273.898 120.081 273.394 119.795 272.876 119.549L273.476 118.691C273.121 118.759 272.794 118.8 272.44 118.841C272.263 119.059 272.154 119.154 272.045 119.154C271.909 119.154 271.827 119.072 271.759 118.841L271.186 117.342V117.356Z" fill="white"/>
<path d="M357.053 89.519C333.372 89.519 314.105 70.2527 314.105 46.5719C314.105 22.891 333.372 3.62469 357.053 3.62469C380.734 3.62469 400 22.891 400 46.5719C400 70.2527 380.734 89.519 357.053 89.519ZM357.053 23.8039C344.504 23.8039 334.285 34.0229 334.285 46.5719C334.285 59.1208 344.504 69.3399 357.053 69.3399C369.602 69.3399 379.821 59.1208 379.821 46.5719C379.821 34.0229 369.602 23.8039 357.053 23.8039Z" fill="white"/>
<path d="M112.422 86.0718L146.636 51.8585V86.0718H167.755V0.872375L82.5557 86.0718H112.422Z" fill="white"/>
<path d="M316.313 5.09625H286.446L252.233 39.3096V5.09625H231.113V90.2957L260.476 60.933L285.683 86.14H315.55L275.409 45.9996L316.313 5.09625Z" fill="white"/>
<path d="M120.448 5.08264H63.0991H0L21.1193 26.202H48.4109V90.2957H48.4246L69.6256 69.0946V26.202H99.3289L99.3426 26.1883H112.532L133.638 5.08264H120.448Z" fill="white"/>
</svg>
